<svg xmlns="http://www.w3.org/2000/svg" width="283" height="34"><style><![CDATA[.N{fill-rule:evenodd}.O{fill:#81b441}]]></style><defs><filter id="A" filterUnits="userSpaceOnUse" x="0" y="6.6" width="24" height="27.4"><feColorMatrix values="1 0 0 0 0 0 1 0 0 0 0 0 1 0 0 0 0 0 1 0"/></filter></defs><mask maskUnits="userSpaceOnUse" x="0" y="6.6" width="24" height="27.4" id="B"><g filter="url(#A)"><path d="M0 .6h282.3V34H0" fill="#fff" class="N"/></g></mask><g class="N"><path d="M20.5 6.8c-.8-.4-3.1-.2-5.9.7-4.8 3.3-8.9 8.2-9.2 16-.1.2-.5 0-.6-.1-1.3-2.5-1.8-5.1-.7-8.9.2-.3-.5-.8-.6-.6a14.83 14.83 0 0 0-1.9 2.5c-3.3 5.7-1.1 13 4.6 16.2 5.8 3.2 13 1.1 16.2-4.6 3.7-6.8.2-20-1.9-21.2" mask="url(#B)" class="O"/><path d="M41.1 13.7c3.7 0 6.1 2.4 6.2 6.2H34.1c.3-3.5 3.3-6.2 7-6.2m0-3.7c-6.8 0-11.8 5.1-11.8 12.1s4.9 12 12 12c3.6 0 6.4-1.1 8.6-3.4.7-.7.7-1.4.7-1.7a1.94 1.94 0 0 0-2-2c-.6 0-1.1.2-1.6.7-1.3 1.2-2.9 2.4-5.7 2.4-3.9 0-7-2.9-7.2-6.6h15.4c1.7 0 2.5-.8 2.5-2.4 0-.5 0-.8-.1-1.5-.9-6-4.9-9.6-10.8-9.6m25.6 0c-3.1 0-6.2 1.8-7.4 4.3v-1.5c0-2.4-1.8-2.5-2.2-2.5-1.1 0-2.2.7-2.2 2.5v18.5c0 2.5 2 2.6 2.3 2.6.4 0 2.3-.1 2.3-2.6v-9.9c0-4.3 2.4-7.3 5.9-7.3 3.4 0 5 2.2 5 6.8v10.4c0 2.5 2 2.6 2.3 2.6.4 0 2.3-.1 2.3-2.6v-12c.2-4.5-2-9.3-8.3-9.3m29.7.2c-1.1 0-1.9.6-2.3 1.9l-6.4 16.1-6.4-16.1c-.5-1.3-1.3-1.9-2.4-1.9-1.3 0-2.3 1-2.3 2.2 0 .3 0 .7.3 1.3l7.4 17.4c.9 2.1 2.3 2.5 3.4 2.5s2.5-.4 3.4-2.5l7.4-17.5c.3-.6.3-1.1.3-1.3-.1-1.1-1.1-2.1-2.4-2.1m17.7 12.4h1v1.1c0 4-2.5 6.5-6.4 6.5-1.1 0-4.5-.2-4.5-3.4 0-3.7 5.7-4.2 9.9-4.2m-4-12.6c-3 0-5.8.8-7.9 2.4-.7.5-1 1.1-1 1.9 0 1 .8 1.9 1.8 1.9.4 0 .9-.2 1.4-.5 1.8-1.2 3.5-1.7 5.3-1.7 3.5 0 5.5 1.8 5.5 4.8v.5c-7.8 0-15.7.9-15.7 7.7 0 4.9 4.2 7.1 8.3 7.1 3.3 0 5.9-1.3 7.6-3.8v1.2c0 1.8 1.2 2.4 2.2 2.4.2 0 2.1-.1 2.1-2.4V18.9c-.1-5.6-3.6-8.9-9.6-8.9m21.7 4.5c2.1 0 2.2-1.6 2.2-1.9 0-.9-.6-2-2.2-2h-4.2V6.3c0-1.9-1.2-2.6-2.3-2.6-.4 0-2.3.1-2.3 2.6v20.3c0 4.7 2.3 7.2 6.7 7.2 1.1 0 2.2-.2 3-.5.8-.4 1.3-1.1 1.3-1.9 0-1.1-.8-1.9-1.9-1.9-.2 0-.5.1-.8.1-.4.1-.7.1-1 .1-1.8 0-2.6-1.2-2.6-3.7V14.5h4.1z" fill="#232323"/></g><defs><filter id="C" filterUnits="userSpaceOnUse" x="135.1" y="10" width="24.5" height="24"><feColorMatrix values="1 0 0 0 0 0 1 0 0 0 0 0 1 0 0 0 0 0 1 0"/></filter></defs><mask maskUnits="userSpaceOnUse" x="135.1" y="10" width="24.5" height="24" id="D"><g filter="url(#C)"><path d="M0 .6h282.3V34H0" fill="#fff" class="N"/></g></mask><g class="N"><path d="M147.3 30c-4.9 0-7.4-4.1-7.4-8.1 0-5.5 3.8-8 7.4-8s7.4 2.5 7.4 8c.1 5.6-3.8 8.1-7.4 8.1m0-20c-7.1 0-12.2 5-12.2 12 0 3.4 1.2 6.4 3.5 8.7 2.2 2.2 5.3 3.4 8.7 3.4 7 0 12.3-5.2 12.3-12.1 0-7-5.1-12-12.3-12" mask="url(#D)" fill="#232323"/><path d="M196.5 11.6c-.7-.7-1.5-1.3-2.5-1.7-1.8-.6-4.3-.7-6.3-.1-.9.3-1.8.7-2.5 1.2-.8.5-1.4 1.1-2 1.8-.2.2-.3.4-.5.7-.5-1.2-1.2-2.1-2.1-2.8-1.3-.9-3-1.4-5-1.4-1 0-2 .2-2.9.5s-1.7.8-2.4 1.3-1.3 1.2-1.9 1.9v-2.6a.68.68 0 0 0-.7-.7h-1.1a.68.68 0 0 0-.7.7v22.3a.68.68 0 0 0 .7.7h1.1a.68.68 0 0 0 .7-.7v-14c.1-.7.4-1.4.7-2.2s.8-1.6 1.4-2.3 1.3-1.3 2.1-1.7 1.8-.7 2.9-.7c.8 0 1.6.1 2.3.3.6.2 1.2.5 1.6.9.5.4.8 1 1.1 1.8s.4 1.8.4 3.1v14.8a.68.68 0 0 0 .7.7h1.1a.68.68 0 0 0 .7-.7V17.9c0-.3.1-.7.3-1.2.1-.4.4-.9.6-1.3a6.42 6.42 0 0 1 1-1.3c.4-.4.8-.8 1.4-1.1.5-.3 1.1-.6 1.8-.8s1.4-.3 2.2-.3h.1c.7 0 1.5.1 2.1.3s1.2.5 1.6 1c.5.5.8 1.1 1.1 1.9.3.9.4 2 .4 3.3v14.4a.68.68 0 0 0 .7.7h1.1a.68.68 0 0 0 .7-.7V18.5c0-1.5-.2-2.9-.5-4-.3-1.2-.8-2.1-1.5-2.9" class="O"/></g><defs><filter id="E" filterUnits="userSpaceOnUse" x="200.6" y="9.5" width="18.7" height="24.5"><feColorMatrix values="1 0 0 0 0 0 1 0 0 0 0 0 1 0 0 0 0 0 1 0"/></filter></defs><mask maskUnits="userSpaceOnUse" x="200.6" y="9.5" width="18.7" height="24.5" id="F"><g filter="url(#E)"><path d="M0 .6h282.3V34H0" fill="#fff" class="N"/></g></mask><g class="N O"><path d="M208.1 31.5c-.8 0-1.5-.1-2.1-.3s-1.1-.5-1.6-.9c-.4-.4-.8-.8-1-1.3s-.4-1-.4-1.6c0-.7.2-1.4.5-2 .4-.6.9-1.1 1.6-1.6s1.6-.8 2.7-1.1 2.3-.4 3.7-.4h4.6v4.4c-.3.7-.7 1.3-1.2 1.9a6.55 6.55 0 0 1-1.8 1.5c-.7.4-1.4.8-2.3 1-.7.3-1.6.4-2.7.4m10.9.2c-.1-.3-.1-.6-.2-1 0-.4-.1-.7-.1-1.2V17.2c0-1.3-.2-2.4-.6-3.4s-1-1.8-1.8-2.5c-.8-.6-1.7-1.1-2.7-1.4-2.1-.6-4.8-.6-6.9.1a10.62 10.62 0 0 0-2.8 1.5c-.8.7-1.4 1.4-1.9 2.3s-.7 1.8-.7 2.8a.68.68 0 0 0 .7.7h1.1c.2 0 .4-.1.5-.2s.2-.3.2-.5c0-.7.2-1.2.5-1.8s.8-1.1 1.3-1.5c.6-.4 1.3-.8 2-1 .8-.3 1.7-.4 2.6-.4 2 0 3.5.5 4.6 1.4 1 .9 1.5 2.1 1.5 3.8v2.6h-4.6c-1.7 0-3.2.2-4.5.5-1.3.4-2.5.9-3.5 1.5-1 .7-1.7 1.5-2.2 2.4s-.8 2-.8 3.1c0 1 .2 1.9.5 2.7.4.8.9 1.6 1.6 2.2s1.5 1.1 2.4 1.4 1.9.5 3.1.5 2.2-.1 3.2-.4 1.8-.6 2.6-1 1.5-1 2.1-1.5l.3-.3v.3l.3 2c.1.3.4.5.7.5h1.3a.68.68 0 0 0 .7-.7v-.2c0-.1 0-.2-.1-.3-.2-.2-.3-.4-.4-.7" mask="url(#F)"/><path d="M232.8 9.8c-.2-.1-.5-.2-.8-.2s-.6-.1-1-.1c-2 0-3.6.5-5 1.5-.6.4-1.1 1-1.6 1.6v-2a.68.68 0 0 0-.7-.7h-1.1a.68.68 0 0 0-.7.7v22.3a.68.68 0 0 0 .7.7h1.1a.68.68 0 0 0 .7-.7V18.4c.2-.9.4-1.8.8-2.5.4-.8.8-1.5 1.4-2 .5-.6 1.2-1 1.9-1.3s1.6-.5 2.5-.5h.7l.7.1c.2 0 .4 0 .5-.1s.2-.3.3-.5l.1-1c0-.4-.2-.7-.5-.8"/></g><defs><filter id="G" filterUnits="userSpaceOnUse" x="235.2" y=".6" width="17.5" height="33"><feColorMatrix values="1 0 0 0 0 0 1 0 0 0 0 0 1 0 0 0 0 0 1 0"/></filter></defs><mask maskUnits="userSpaceOnUse" x="235.2" y=".6" width="17.5" height="33" id="H"><g filter="url(#G)"><path d="M0 .6h282.3V34H0V.6z" fill="#fff" class="N"/></g></mask><g class="N O"><path d="M242.1 20.2l9.7-9c.2-.2.3-.5.2-.8s-.4-.4-.7-.4h-1.6c-.2 0-.3.1-.5.2l-10.1 9.4-1.4 1.4V1.3a.68.68 0 0 0-.7-.7h-1.1a.68.68 0 0 0-.7.7v31.6a.68.68 0 0 0 .7.7h1.1a.68.68 0 0 0 .7-.7V24l2.5-2.1 9.8 11.5c.1.2.3.2.5.2h1.4a.68.68 0 0 0 .7-.7c0-.2-.1-.4-.3-.6l-10.2-12.1z" mask="url(#H)"/><path d="M264.1 12.6c.8.4 1.5 1 2.1 1.6.6.7 1 1.5 1.4 2.4.3.8.4 1.6.5 2.5h-14c.1-.8.4-1.6.7-2.4.4-1 1-1.8 1.6-2.5s1.4-1.3 2.3-1.7c1.5-.7 3.8-.7 5.4.1m3.9-.2c-.8-.9-1.8-1.6-2.9-2.1-2.3-1-5.2-1-7.6.1-1.2.6-2.3 1.4-3.2 2.5-.9 1-1.6 2.3-2.1 3.7s-.8 3-.8 4.7v.9c0 1.7.3 3.3.8 4.7s1.3 2.7 2.2 3.7 2.1 1.9 3.3 2.5c1.3.6 2.6.9 4.1.9a10.9 10.9 0 0 0 2.6-.3c.8-.2 1.5-.5 2.2-.8s1.3-.8 1.8-1.2c.5-.5 1-1 1.4-1.6a.78.78 0 0 0-.2-1l-.8-.6c-.3-.2-.7-.2-1 .1-.4.6-.9 1-1.3 1.4-.5.4-.9.6-1.4.8s-1 .4-1.6.4c-1.6.3-3.4.1-4.8-.6-1-.5-1.8-1.1-2.5-2a8.72 8.72 0 0 1-1.7-3c-.4-1.1-.6-2.4-.6-3.7v-.5h16a.68.68 0 0 0 .7-.7v-1.3c0-1.5-.2-2.9-.7-4.1-.5-.9-1.1-2-1.9-2.9"/></g><defs><filter id="I" filterUnits="userSpaceOnUse" x="269.9" y="3.9" width="12.4" height="30.1"><feColorMatrix values="1 0 0 0 0 0 1 0 0 0 0 0 1 0 0 0 0 0 1 0"/></filter></defs><mask maskUnits="userSpaceOnUse" x="269.9" y="3.9" width="12.4" height="30.1" id="J"><g filter="url(#I)"><path d="M0 .6h282.3V34H0V.6z" fill="#fff" class="N"/></g></mask><path d="M282.1 31.9c-.1-.4-.4-.6-.8-.6-.4.1-.7.1-1 .1-.6.1-1.5.1-2.2-.1-.3-.1-.5-.2-.7-.5s-.4-.6-.6-1.1-.2-1.3-.2-2.2V12.4h4.4a.68.68 0 0 0 .7-.7v-1.1a.68.68 0 0 0-.7-.7h-4.4V4.6a.68.68 0 0 0-.7-.7h-1.1a.68.68 0 0 0-.7.7v5.3h-3.4a.68.68 0 0 0-.7.7v1.1a.68.68 0 0 0 .7.7h3.4v15.1c0 1.2.1 2.2.3 3s.6 1.5 1 2c.5.5 1.1.9 1.7 1.1s1.3.3 2.1.3h1.2c.2 0 .4 0 .7-.1.3 0 .5-.1.7-.2.3-.1.5-.4.5-.8l-.2-.9z" mask="url(#J)" class="N O"/></svg>